PathFileType	4	(x/y/z)	S04_M20_T34.trc
DataRate	CameraRate	NumFrames	NumMarkers	Units	OrigDataRate	OrigDataStartFrame	OrigNumFrames
240	240	8	51	mm	240	469	535
Frame#	Time	Sternum			R.Acromium			L.Acromium			Top.Head			R.ASIS			L.ASIS			R.PSIS			L.PSIS			R.Great.Tro			L.Great.Tro			R.Iliac.Crest			L.Iliac.Crest			V.Sacral			R.Thigh.Upper.Post			R.Thigh.Lower.Ant			R.Thigh.Lower.Post			R.Thigh.Upper.Ant			R.Knee.Lat			R.Knee.Med			R.Shank.Upper.Post			R.Shank.Lower.Ant			R.Shank.Lower.Post			R.Shank.Upper.Ant			R.Ankle.Lat			R.Ankle.Med			R.Heel.Upper			R.Heel.Med			R.Heel.Lat			R.Toe.Lat			R.Toe.Med			R.Toe.Tip			L.Thigh.Upper.Post			L.Thigh.Lower.Ant			L.Thigh.Lower.Post			L.Thigh.Upper.Ant			L.Knee.Lat			L.Knee.Med			L.Shank.Upper.Post			L.Shank.Lower.Ant			L.Shank.Lower.Post			L.Shank.Upper.Ant			L.Ankle.Lat			L.Ankle.Med			L.Heel.Upper			L.Heel.Med			L.Heel.Lat			L.Toe.Lat			L.Toe.Med			L.Toe.Tip			Cervical.Spine			Back			
		X1	Y1	Z1	X2	Y2	Z2	X3	Y3	Z3	X4	Y4	Z4	X5	Y5	Z5	X6	Y6	Z6	X7	Y7	Z7	X8	Y8	Z8	X9	Y9	Z9	X10	Y10	Z10	X11	Y11	Z11	X12	Y12	Z12	X13	Y13	Z13	X14	Y14	Z14	X15	Y15	Z15	X16	Y16	Z16	X17	Y17	Z17	X18	Y18	Z18	X19	Y19	Z19	X20	Y20	Z20	X21	Y21	Z21	X22	Y22	Z22	X23	Y23	Z23	X24	Y24	Z24	X25	Y25	Z25	X26	Y26	Z26	X27	Y27	Z27	X28	Y28	Z28	X29	Y29	Z29	X30	Y30	Z30	X31	Y31	Z31	X32	Y32	Z32	X33	Y33	Z33	X34	Y34	Z34	X35	Y35	Z35	X36	Y36	Z36	X37	Y37	Z37	X38	Y38	Z38	X39	Y39	Z39	X40	Y40	Z40	X41	Y41	Z41	X42	Y42	Z42	X43	Y43	Z43	X44	Y44	Z44	X45	Y45	Z45	X46	Y46	Z46	X47	Y47	Z47	X48	Y48	Z48	X49	Y49	Z49	X50	Y50	Z50	X51	Y51	Z51	

469	1.95	1684.8	1273.6	218.27	1573.7	1503.7	405.21	1532.6	1486.7	56.534	1567.3	1827	221.95	1685.6	990.42	343.2	1634.9	1004.2	93.296	1456.2	1031.8	291.2	1448.2	1039.1	210.44	1618.2	916.93	425.71	1496.4	929.55	61.025	1603.6	1081.4	407.05	1533.7	1090.1	69.619	1429.9	994.26	253.25	1719.4	675.21	406.81	1814.9	633.8	354.32	1756	593.9	385.22	1777.9	735.63	380.27	1800	542.67	370.58	1763.4	530.65	237.99	1749.4	313.5	377.14	1819.8	242.05	332.4	1754.6	243.99	362.83	1812	311.79	354.17	1777.7	127.91	346.39	1790.8	144.43	254.76	1715.2	85.833	293.65	1726.7	56.909	261.47	1726.4	54.512	327.67	1898.9	72.88	364.18	1924.8	81.803	246.32	1985.8	112.34	289.74	1442.9	703.91	87.291	1507.8	594.18	85.69	1438.3	615.48	100.91	1507	683.68	68.58	1459.2	514	105.22	1477.6	503.57	231.14	1342.8	350.09	125.88	1397	252.85	125.89	1336.8	273.28	136.54	1403.9	328.07	114.35	1353.7	107.04	157.24	1361.7	120.97	249.94	1276.9	79.398	206.43	1282.6	53.847	240.04	1278.9	52.424	177.92	1460.4	41.125	134.87	1495.2	45.676	251.53	1551.7	51.085	201.6	1504.6	1546.1	239.78	1423.2	1289.2	229.39
470	1.9542	1689.9	1272.7	217.9	1579.3	1502.8	405.16	1537.4	1485.9	56.581	1572.5	1826.3	221.91	1690.9	989.58	342.61	1639.4	1003.3	92.866	1461.4	1031.1	291.45	1453.2	1038.4	210.72	1623.8	916.18	425.47	1500.7	929.09	61.221	1609.2	1080.6	406.82	1538.1	1089.4	69.626	1434.9	993.59	253.58	1724.5	674.32	406.74	1820	632.97	354.2	1761.1	593.04	385.15	1782.9	734.79	380.13	1805.5	542.12	370.45	1768.6	529.63	237.95	1759.6	311.98	376.68	1831.4	242.23	331.8	1766.3	242.66	362.23	1822.2	311.65	353.62	1792	127.05	345.5	1804.6	144.15	253.83	1730.2	83.738	292.78	1742.2	55.203	260.53	1742.2	52.598	326.73	1914.4	74.605	362.79	1939.8	84.469	244.86	2000.2	116.21	288.21	1445.8	703.88	87.418	1510.1	593.86	85.709	1440.7	615.52	101.06	1509.7	683.38	68.642	1461	513.92	105.31	1479.6	503.36	231.19	1344	350.51	126.1	1397.7	253.07	126	1337.7	273.71	136.79	1405	328.2	114.51	1353.4	107.4	157.5	1362	121.22	250.15	1277.1	79.815	206.68	1282.7	54.206	240.28	1279.1	52.865	178.14	1460.4	41.146	134.94	1495.3	45.568	251.58	1551.8	50.878	201.6	1509.9	1545.3	239.89	1428.2	1288.4	229.72
471	1.9583	1694.9	1271.8	217.54	1585	1501.9	405.11	1542.2	1485.1	56.636	1577.7	1825.5	221.89	1696.3	988.72	342.04	1643.9	1002.5	92.448	1466.6	1030.4	291.69	1458.1	1037.7	211.01	1629.4	915.42	425.23	1505.1	928.61	61.427	1614.8	1079.7	406.6	1542.5	1088.6	69.64	1440	992.91	253.92	1729.6	673.4	406.69	1825	632.1	354.1	1766.2	592.15	385.09	1787.9	733.9	379.99	1811.1	541.54	370.33	1773.9	528.58	237.92	1769.7	310.52	376.19	1843	242.5	331.21	1777.9	241.42	361.62	1832.3	311.58	353.08	1806.1	126.34	344.58	1818.2	144	252.9	1745.1	81.819	291.87	1757.7	53.682	259.53	1757.9	50.882	325.74	1929.7	76.488	361.43	1954.6	87.279	243.45	2014.4	120.2	286.74	1448.7	703.84	87.546	1512.5	593.54	85.725	1443.2	615.55	101.2	1512.5	683.07	68.701	1462.8	513.83	105.4	1481.7	503.14	231.24	1345.2	350.93	126.33	1398.5	253.28	126.12	1338.6	274.16	137.04	1406.2	328.34	114.69	1353.2	107.78	157.76	1362.4	121.48	250.37	1277.3	80.261	206.93	1282.9	54.595	240.51	1279.2	53.333	178.36	1460.4	41.168	135	1495.4	45.461	251.63	1552	50.666	201.59	1515.1	1544.5	240.01	1433.2	1287.7	230.05
472	1.9625	1700	1270.9	217.18	1590.7	1501	405.07	1547	1484.3	56.7	1583	1824.7	221.87	1701.7	987.82	341.46	1648.3	1001.6	92.043	1471.8	1029.7	291.94	1463.1	1037	211.3	1635.1	914.62	425	1509.4	928.12	61.642	1620.5	1078.8	406.38	1547	1087.9	69.658	1445.1	992.21	254.25	1734.6	672.45	406.65	1830.1	631.19	354.01	1771.3	591.21	385.05	1792.8	732.97	379.87	1816.5	540.93	370.24	1779.1	527.49	237.9	1779.8	309.13	375.69	1854.5	242.85	330.61	1789.4	240.29	360.98	1842.4	311.55	352.55	1820.2	125.78	343.65	1831.8	143.99	251.95	1760	80.076	290.91	1773.1	52.346	258.49	1773.6	49.363	324.7	1944.9	78.526	360.11	1969.3	90.227	242.08	2028.5	124.29	285.36	1451.6	703.78	87.677	1514.9	593.22	85.739	1445.7	615.57	101.35	1515.3	682.75	68.758	1464.7	513.74	105.49	1483.7	502.92	231.3	1346.5	351.37	126.55	1399.4	253.5	126.24	1339.5	274.61	137.28	1407.4	328.48	114.88	1352.9	108.16	158.02	1362.8	121.76	250.58	1277.5	80.737	207.17	1283.1	55.015	240.75	1279.3	53.828	178.58	1460.5	41.189	135.06	1495.5	45.354	251.68	1552.1	50.449	201.59	1520.4	1543.6	240.13	1438.3	1286.9	230.39
473	1.9667	1705.1	1269.9	216.83	1596.4	1500.1	405.04	1551.8	1483.4	56.772	1588.3	1823.9	221.87	1707.2	986.9	340.89	1652.8	1000.7	91.65	1477.1	1029	292.19	1468.1	1036.3	211.6	1640.7	913.8	424.76	1513.8	927.61	61.863	1626.2	1077.9	406.16	1551.5	1087.1	69.682	1450.2	991.5	254.58	1739.6	671.47	406.62	1835.1	630.24	353.93	1776.3	590.24	385.03	1797.8	732.01	379.76	1822	540.29	370.16	1784.3	526.38	237.88	1789.8	307.8	375.16	1865.8	243.29	330.03	1800.9	239.24	360.32	1852.3	311.59	352.04	1834.1	125.36	342.69	1845.3	144.11	251	1774.8	78.507	289.9	1788.4	51.19	257.4	1789.1	48.04	323.62	1959.8	80.712	358.84	1983.8	93.307	240.76	2042.3	128.49	284.06	1454.6	703.7	87.814	1517.3	592.89	85.751	1448.3	615.59	101.51	1518.1	682.43	68.814	1466.7	513.65	105.59	1485.9	502.68	231.36	1347.7	351.81	126.77	1400.2	253.73	126.37	1340.4	275.08	137.51	1408.6	328.62	115.07	1352.7	108.55	158.28	1363.2	122.05	250.79	1277.7	81.243	207.42	1283.2	55.465	240.98	1279.4	54.352	178.8	1460.5	41.211	135.12	1495.6	45.249	251.72	1552.2	50.229	201.59	1525.8	1542.8	240.27	1443.4	1286.1	230.73
474	1.9708	1710.3	1269	216.49	1602.1	1499.1	405.01	1556.7	1482.5	56.853	1593.5	1823.1	221.88	1712.6	985.95	340.32	1657.4	999.76	91.269	1482.4	1028.2	292.44	1473.1	1035.6	211.9	1646.3	912.96	424.53	1518.2	927.1	62.089	1632	1077	405.94	1556	1086.3	69.711	1455.4	990.78	254.92	1744.6	670.47	406.6	1840	629.26	353.87	1781.3	589.25	385.02	1802.7	731.02	379.65	1827.4	539.61	370.09	1789.6	525.24	237.87	1799.7	306.54	374.61	1877.1	243.8	329.44	1812.3	238.29	359.64	1862.1	311.68	351.54	1847.9	125.09	341.72	1858.6	144.36	250.04	1789.6	77.109	288.84	1803.6	50.213	256.28	1804.5	46.907	322.5	1974.6	83.039	357.61	1998.1	96.514	239.5	2055.9	132.79	282.85	1457.7	703.6	87.958	1519.7	592.56	85.762	1450.9	615.59	101.66	1521	682.1	68.867	1468.6	513.55	105.68	1488.1	502.44	231.42	1349	352.25	126.98	1401.1	253.95	126.5	1341.4	275.55	137.75	1409.9	328.76	115.26	1352.6	108.95	158.52	1363.6	122.35	251	1277.9	81.779	207.66	1283.4	55.946	241.22	1279.5	54.904	179.02	1460.5	41.233	135.19	1495.8	45.145	251.76	1552.3	50.005	201.59	1531.1	1541.9	240.41	1448.5	1285.3	231.08
475	1.975	1715.4	1268	216.15	1607.9	1498.2	404.99	1561.6	1481.7	56.942	1598.9	1822.3	221.9	1718.1	984.98	339.76	1661.9	998.83	90.899	1487.7	1027.4	292.7	1478.1	1034.9	212.2	1652	912.09	424.31	1522.7	926.57	62.319	1637.7	1076	405.73	1560.5	1085.5	69.745	1460.5	990.04	255.25	1749.6	669.44	406.59	1845	628.25	353.81	1786.4	588.22	385.02	1807.7	730.01	379.54	1832.8	538.91	370.04	1794.8	524.07	237.85	1809.6	305.34	374.04	1888.2	244.39	328.84	1823.5	237.43	358.93	1871.9	311.82	351.05	1861.6	124.95	340.73	1871.9	144.74	249.08	1804.2	75.88	287.74	1818.7	49.408	255.11	1819.8	45.959	321.34	1989.1	85.501	356.43	2012.2	99.84	238.29	2069.3	137.17	281.73	1460.8	703.51	88.111	1522.2	592.22	85.77	1453.5	615.59	101.82	1523.9	681.76	68.919	1470.7	513.44	105.77	1490.3	502.19	231.48	1350.4	352.71	127.19	1402	254.18	126.63	1342.3	276.04	137.97	1411.2	328.91	115.45	1352.6	109.37	158.76	1364	122.67	251.21	1278.2	82.346	207.91	1283.6	56.458	241.44	1279.7	55.484	179.24	1460.5	41.256	135.25	1495.9	45.043	251.8	1552.4	49.778	201.59	1536.5	1541	240.56	1453.6	1284.5	231.43
476	1.9792	1720.6	1267	215.82	1613.6	1497.2	404.98	1566.5	1480.8	57.04	1604.2	1821.4	221.93	1723.6	983.98	339.2	1666.5	997.88	90.54	1493	1026.7	292.96	1483.2	1034.1	212.51	1657.7	911.19	424.08	1527.1	926.03	62.552	1643.5	1075.1	405.52	1565.1	1084.6	69.783	1465.7	989.29	255.6	1754.6	668.39	406.58	1850	627.21	353.76	1791.4	587.17	385.03	1812.6	728.97	379.44	1838.2	538.19	370	1800	522.89	237.84	1819.3	304.2	373.45	1899.2	245.03	328.24	1834.7	236.66	358.21	1881.5	312.02	350.56	1875.2	124.94	339.73	1885	145.23	248.1	1818.7	74.815	286.6	1833.7	48.77	253.91	1834.9	45.19	320.13	2003.4	88.087	355.31	2026.2	103.28	237.14	2082.5	141.62	280.71	1463.9	703.4	88.276	1524.7	591.89	85.777	1456.2	615.59	101.98	1526.8	681.43	68.969	1472.8	513.33	105.86	1492.6	501.94	231.54	1351.8	353.18	127.39	1402.9	254.41	126.77	1343.4	276.54	138.18	1412.5	329.07	115.64	1352.6	109.78	158.99	1364.4	123	251.41	1278.4	82.943	208.14	1283.8	57.003	241.66	1279.8	56.094	179.46	1460.6	41.279	135.31	1496	44.944	251.84	1552.6	49.548	201.59	1541.9	1540.1	240.72	1458.8	1283.7	231.79
